<?xml version="1.0" standalone="no"?><!DOCTYPE svg PUBLIC "-//W3C//DTD SVG 1.1//EN" "http://www.w3.org/Graphics/SVG/1.1/DTD/svg11.dtd"><svg t="1774102812861" class="icon" viewBox="0 0 1024 1024" version="1.1" xmlns="http://www.w3.org/2000/svg" p-id="30190" xmlns:xlink="http://www.w3.org/1999/xlink" width="200" height="200"><path d="M372.224 240.64c0 47.104 38.4 84.992 86.016 84.992s86.016-37.888 86.016-84.992c0-47.104-38.4-84.992-86.016-84.992S372.224 194.048 372.224 240.64z" fill="#CCE9FF" p-id="30191"></path><path d="M160.256 727.04C199.68 501.248 303.104 418.816 425.984 384c153.6-40.448 288.256-11.264 416.768-71.168 77.824-36.352 75.264 29.184 73.216 38.912-17.92 151.552-100.864 293.888-273.408 362.496-187.904 73.728-373.76-64-507.904 151.552-1.024 1.536-3.072 2.56-5.12 2.56h-16.384c-2.048 0-3.584-1.024-4.608-2.56-1.024-1.536-1.536-3.584-0.512-5.12 51.2-99.84 125.44-186.368 217.088-252.416 91.136-64 192-113.152 298.496-145.92 9.216-2.56 5.12-16.384-3.584-15.36-84.992 17.408-166.4 47.104-242.176 88.064-84.992 49.152-158.72 114.176-217.6 192" fill="#0069FF" p-id="30192"></path><path d="M714.24 512c0 15.872 12.8 28.672 28.672 28.672 15.872 0 28.672-12.8 28.672-28.672s-12.8-28.672-28.672-28.672c-15.872 0-28.672 12.8-28.672 28.672z" fill="#FFFFFF" p-id="30193"></path></svg>